<?xml version="1.0" encoding="utf-8"?>
<!-- Generator: Adobe Illustrator 23.1.0, SVG Export Plug-In . SVG Version: 6.00 Build 0)  -->
<svg version="1.1" id="图层_1" xmlns="http://www.w3.org/2000/svg" xmlns:xlink="http://www.w3.org/1999/xlink" x="0px" y="0px"
	 viewBox="0 0 38 38" style="enable-background:new 0 0 38 38;" xml:space="preserve">
<style type="text/css">
	.st0{fill:#FFFFFF;}
	.st1{fill:#1D1D1F;}
</style>
<g>
	<rect class="st0" width="38" height="38"/>
	<path class="st1" d="M9,32.3c0,0.7,0.6,1.3,1.3,1.4h1.5c0.8-0.1,1.4-0.8,1.4-1.6v-9c-1.4,0.5-2.8,0.8-4.3,0.8L9,32.3z M13,9.2
		c-1.7,0-3.4,0.4-4.8,1.4c-1.4,0.8-2.6,1.8-3.6,3c0.8,0.2,1.6,0.6,2.3,1.1c0.7,0.5,1.4,1.1,1.8,1.9c0.7,0.9,1.1,2,1.3,3.2
		c0.1,0.6,0.1,1.3,0,1.9c0,0.3-0.1,0.5-0.2,0.8c1.2-0.1,2.4-0.4,3.6-0.8l0.3-0.2c0.9-0.6,1.8-1.2,2.5-2l0.1-0.1c1-1,1.6-2.3,1.7-3.6
		c0.1-1.5-0.4-3-1.2-4.3C15.1,9.4,13.7,9.2,13,9.2L13,9.2z M15.3,13.7L13,15.4c-0.4,0.3-1,0.2-1.3-0.2v0c-0.3-0.4-0.2-1,0.2-1.4
		l2.3-1.7c0.5-0.3,1.1-0.1,1.3,0.3C15.7,12.9,15.6,13.4,15.3,13.7z M9.1,20.1c-0.2-1.2-0.7-2.3-1.4-3.2c-0.4-0.6-0.9-1.2-1.5-1.6
		c-0.5-0.4-1-0.6-1.6-0.7c-0.5-0.1-0.9,0-1.4,0.2c-1,0.5-1.9,1.3-2.3,2.4c-0.2,0.5-0.3,1-0.4,1.6c0,0.4,0,0.9,0.1,1.3
		c0.1,0.2,0.1,0.4,0.2,0.6c0.2,0.4,0.4,0.9,0.7,1.2c0.3,0.5,0.8,1,1.3,1.4c0.9,0.6,1.9,1,3,0.9c0.6,0,1.2-0.2,1.7-0.4
		c0.5-0.2,0.9-0.6,1.2-1.1C9.1,21.8,9.3,21,9.1,20.1L9.1,20.1z M4.1,22.4c-0.8-0.2-1.4-0.7-1.8-1.3c-0.5-0.6-0.7-1.4-0.6-2.1
		c0.1-0.5,0.7-0.5,1.1,0l1.7,2.4C4.7,21.9,4.5,22.5,4.1,22.4L4.1,22.4z M29,23.8c-1.5,0-2.9-0.3-4.3-0.8v9c0,0.8,0.6,1.5,1.4,1.6
		h1.5c0.7-0.1,1.3-0.7,1.3-1.4L29,23.8z M27.9,21.7c-0.1-0.6-0.1-1.2,0-1.9c0.2-1.2,0.6-2.2,1.3-3.2c0.5-0.8,1.1-1.5,1.9-2
		c0.7-0.5,1.4-0.9,2.3-1.1c-1-1.2-2.2-2.3-3.6-3c-1.4-0.9-3.1-1.4-4.8-1.4c-0.8,0-2.1,0.2-3.8,2.2c-0.9,1.2-1.3,2.7-1.2,4.3
		c0.1,1.4,0.7,2.6,1.7,3.6l0.1,0.1c0.8,0.8,1.6,1.4,2.5,2l0.3,0.2c1.1,0.5,2.4,0.7,3.6,0.8C28.1,22.2,28,22,27.9,21.7L27.9,21.7z
		 M26.3,15.2c-0.3,0.4-0.9,0.5-1.3,0.2c0,0,0,0,0,0l-2.3-1.7c-0.4-0.3-0.5-1-0.1-1.4c0.3-0.4,0.8-0.5,1.3-0.2l2.3,1.7
		C26.5,14.1,26.6,14.7,26.3,15.2L26.3,15.2z M37.1,17.2c-0.5-1-1.3-1.9-2.3-2.4c-0.4-0.2-0.9-0.2-1.4-0.2c-0.6,0.1-1.2,0.3-1.6,0.7
		c-0.6,0.4-1.1,1-1.5,1.6c-0.7,0.9-1.2,2-1.4,3.2c-0.2,0.8,0,1.7,0.4,2.5c0.3,0.5,0.7,0.9,1.2,1.1c0.5,0.3,1.1,0.4,1.7,0.4
		c1.1,0.1,2.1-0.2,3-0.8c0.5-0.4,0.9-0.8,1.3-1.4c0.3-0.4,0.5-0.8,0.7-1.2c0.1-0.2,0.1-0.4,0.2-0.6c0.1-0.4,0.2-0.8,0.1-1.3
		C37.5,18.3,37.3,17.7,37.1,17.2z M35.8,21.2c-0.4,0.7-1.1,1.2-1.9,1.3c-0.5,0-0.7-0.6-0.4-1.1l1.7-2.4c0.3-0.5,0.9-0.5,1.1,0
		C36.5,19.8,36.2,20.5,35.8,21.2L35.8,21.2z"/>
</g>
</svg>
