<?xml version="1.0" encoding="UTF-8"?>
<svg width="200px" height="241px" viewBox="0 0 200 241" version="1.1" xmlns="http://www.w3.org/2000/svg" xmlns:xlink="http://www.w3.org/1999/xlink">
    <title>airpods</title>
    <g id="airpods" stroke="none" stroke-width="1" fill="none" fill-rule="evenodd">
        <path d="M51.9040526,57.4337336 C52.1898991,62.3690131 56.2146845,66.3012658 61.1880468,66.4401297 L61.4602451,66.4439252 L141.582093,66.4439252 C146.680062,66.4439252 150.847242,62.4587454 151.138286,57.4337336 L199.932249,57.433256 C199.977325,59.3643211 200,61.4203558 200,63.6151967 L200,177.384803 C200,199.505193 197.696808,207.526581 193.371895,215.613465 C189.046982,223.700349 182.700349,230.046982 174.613465,234.371895 C166.609951,238.652221 158.670589,240.952297 137.064459,240.999266 L63.6151967,241 C41.4948069,241 33.4734191,238.696808 25.3865352,234.371895 C17.2996513,230.046982 10.9530175,223.700349 6.62810468,215.613465 C2.34777859,207.609951 0.0477033628,199.670589 0.000734049719,178.064459 L1.71342006e-15,63.6151967 C1.44462957e-15,61.4203558 0.022675175,59.3643211 0.0677505682,57.433256 L51.9040526,57.4337336 Z M150.008089,57.4340771 C149.718579,61.8365241 146.055965,65.317757 141.580266,65.317757 L61.4620729,65.317757 C56.9863734,65.317757 53.3237595,61.8365241 53.0342498,57.4340771 L150.008089,57.4340771 Z M141.580266,48.4252336 C146.055704,48.4252336 149.718151,51.9060596 150.008038,56.3081416 L53.0343006,56.3081416 C53.3241877,51.9060596 56.986635,48.4252336 61.4620729,48.4252336 L141.580266,48.4252336 Z M173.862904,6.23263395 L174.36336,6.49498941 L174.613465,6.62810468 C182.700349,10.9530175 189.046982,17.2996513 193.371895,25.3865352 C197.183224,32.5130998 199.424481,39.5888002 199.903035,56.3075299 L151.138169,56.3072531 C150.851349,51.3729012 146.826961,47.441687 141.854255,47.30286 L141.582093,47.2990654 L61.4602451,47.2990654 C56.3629541,47.2990654 52.1962042,51.2831857 51.9041688,56.3072531 L0.0969648299,56.3075299 C0.575518609,39.5888002 2.8167762,32.5130998 6.62810468,25.3865352 C10.9530175,17.2996513 17.2996513,10.9530175 25.3865352,6.62810468 C33.3900491,2.34777859 41.3294105,0.0477033628 62.9355408,0.000734049719 L136.384803,3.09918395e-14 C157.821057,2.70540635e-14 166.016926,2.16292945 173.862904,6.23263395 Z" id="Combined-Shape" fill="#404040"></path>
        <ellipse id="Oval" fill="#04DE71" cx="100" cy="92.6343037" rx="2.2556391" ry="2.25930369"></ellipse>
    </g>
</svg>