<?xml version="1.0" encoding="UTF-8"?>
<svg width="254px" height="191px" viewBox="0 0 254 191" version="1.1" xmlns="http://www.w3.org/2000/svg" xmlns:xlink="http://www.w3.org/1999/xlink">
    <title>airpods pro</title>
    <g id="airpods-pro" stroke="none" stroke-width="1" fill="none" fill-rule="evenodd">
        <path d="M64.8569158,54.3197178 C65.2872526,58.6610074 68.8864273,62.0704183 73.3089409,62.2024516 L73.575261,62.206422 L180.424739,62.206422 C184.968338,62.206422 188.704141,58.7478332 189.143084,54.3197178 L253.672818,54.3198398 C253.889988,58.0916756 254,62.3932643 254,67.3682939 L254,123.631706 C254,145.188027 251.934624,154.101136 248.036139,162.059496 L247.782083,162.571731 L247.52017,163.087434 C247.343838,163.430731 247.164061,163.773179 246.980858,164.115739 C242.400789,172.679724 235.679724,179.400789 227.115739,183.980858 C226.773179,184.164061 226.430731,184.343838 226.087434,184.52017 L225.571731,184.782083 L225.059496,185.036139 C217.101136,188.934624 208.188027,191 186.631706,191 L67.3682939,191 C45.8119726,191 36.8988639,188.934624 28.9405036,185.036139 L28.4282694,184.782083 L27.9125664,184.52017 C27.569269,184.343838 27.2268206,184.164061 26.8842612,183.980858 C18.3202765,179.400789 11.5992112,172.679724 7.01914208,164.115739 C6.83593931,163.773179 6.65616214,163.430731 6.47982964,163.087434 L6.21791678,162.571731 C2.19838563,154.564745 0.0460704596,145.839331 0.00073142381,124.330005 L5.44184303e-15,67.3682939 C3.61460971e-15,62.3932643 0.110012294,58.0916756 0.327181575,54.3198398 L64.8569158,54.3197178 Z M188.262218,54.3211132 C187.826378,58.2637244 184.483817,61.3302752 180.425024,61.3302752 L73.5749763,61.3302752 C69.5161835,61.3302752 66.173622,58.2637244 65.7377822,54.3211132 L188.262218,54.3211132 Z M225.440504,5.96386064 L225.952738,6.21791678 L226.468441,6.47982964 C226.811738,6.65616214 227.154187,6.83593931 227.496746,7.01914208 C236.060731,11.5992112 242.781796,18.3202765 247.361865,26.8842612 L247.498625,27.1411749 L247.768283,27.6552375 C251.066778,34.0081682 253.184745,40.5701101 254.000903,53.4444461 L189.186207,53.4449541 C189.186207,48.6925366 185.402408,44.8238728 180.683068,44.6872216 L180.424739,44.6834862 L73.575261,44.6834862 C68.8228435,44.6834862 64.9541796,48.4672855 64.8175285,53.1866249 L64.8137931,53.4449541 L-0.000902565487,53.4444461 C0.683085454,42.6549906 2.28139135,36.2990021 4.72262682,30.783998 L4.9611111,30.253654 L5.20482677,29.7278236 C5.41009893,29.2913122 5.62080555,28.8587525 5.83690938,28.4282694 L6.09882224,27.9125664 C6.18698849,27.7409177 6.27601591,27.5694812 6.36590211,27.398137 L6.63813468,26.8842612 C11.2182038,18.3202765 17.9392691,11.5992112 26.5032538,7.01914208 C26.8458132,6.83593931 27.1882616,6.65616214 27.531559,6.47982964 L28.047262,6.21791678 C36.0542476,2.19838563 44.7796621,0.0460704596 66.288988,0.00073142381 L187.012714,2.72175971e-15 C208.569035,-1.23807226e-15 217.482143,2.06537628 225.440504,5.96386064 Z M180.425024,45.559633 C184.779966,45.559633 188.310345,49.0900115 188.310345,53.4449541 L65.6896552,53.4449541 C65.6896552,49.0900115 69.2200337,45.559633 73.5749763,45.559633 L180.425024,45.559633 Z" id="Combined-Shape" fill="#404040"></path>
        <ellipse id="Oval" fill="#04DE71" cx="127.437931" cy="90.6912865" rx="2.18965517" ry="2.20046083"></ellipse>
    </g>
</svg>